<?xml version="1.0" encoding="utf-8"?>
<!-- Generator: Adobe Illustrator 19.2.1, SVG Export Plug-In . SVG Version: 6.00 Build 0)  -->
<svg version="1.1" id="layer" xmlns="http://www.w3.org/2000/svg" xmlns:xlink="http://www.w3.org/1999/xlink" x="0px" y="0px"
	 viewBox="0 0 652 652" style="enable-background:new 0 0 652 652;" xml:space="preserve">
<style type="text/css">
	.st0{fill:#00A9E1;}
</style>
<path class="st0" d="M591.6,320c13.8-10.6,19.8-21.7,18.9-35.9c-1.4-20.7-18.1-34.6-37.1-34.6H519v119.8h21.6V320h25.6l30.6,49.3
	h25.5L591.6,320z M589.5,284.2c0,9.2-6.4,14.6-16.2,14.6h-32.7v-28.1h32.7C585.7,270.6,589.5,279.2,589.5,284.2z M354.2,324.5
	l27.9,44.7l25.7,0l-39.7-63.5L354.2,324.5z M400,249.5h-27.5l-56.6,75.7l0-75.7h-21.7v109.2c0,4,2.3,9,8.5,10.4
	c2.5,0.6,7.4,0,10.4-4C313.5,364.7,400,249.5,400,249.5z M448.2,320l42.7,0v-21.2h-42.7V320z M501.9,249.5h-84.8v109.2
	c0,2.8,1.1,5.5,3.1,7.5c2,2,4.7,3.1,7.5,3.1h74.2v-21.2h-63.1v-77.4h63.1V249.5z M250.7,249.5l0,75.7l-56.6-75.7h-27.6v119.8h21.7
	v-91.1c25.7,34.2,65.1,86.7,65.4,87c3,3.9,7.9,4.5,10.4,4c6.2-1.4,8.5-6.4,8.5-10.4V249.5H250.7z M78,255.9L22.3,369.3h24.3
	l41.9-85.1l41.9,85.1h24l-55.2-113c-1-2-2.6-3.8-4.5-5c-1.9-1.2-4.1-1.8-6.4-1.8c-2.1,0-4.2,0.6-6.1,1.7C80.4,252.3,79,254,78,255.9
	z M108.2,352.3H93.8c0,0-0.1,0-0.1,0c0,0-0.1,0-0.1-0.1c0,0,0-0.1,0-0.1c0,0,0-0.1,0-0.1l2.8-30.8c0-0.1,0-0.1,0-0.1
	c0,0-0.1-0.1-0.1-0.1c0,0-0.1,0-0.1,0c0,0-0.1,0-0.1,0.1l-30.9,40.6c0,0,0,0.1,0,0.1c0,0,0,0.1,0,0.1c0,0,0,0.1,0.1,0.1
	c0,0,0.1,0,0.1,0h14.3c0,0,0.1,0,0.1,0c0,0,0.1,0,0.1,0.1c0,0,0,0.1,0,0.1c0,0,0,0.1,0,0.1l-2.8,30.8c0,0.1,0,0.1,0,0.1
	c0,0,0.1,0.1,0.1,0.1c0,0,0.1,0,0.1,0c0,0,0.1,0,0.1-0.1l30.9-40.6c0,0,0-0.1,0-0.1c0,0,0-0.1,0-0.1s0-0.1-0.1-0.1
	C108.3,352.3,108.2,352.3,108.2,352.3z"/>
</svg>
